<mxfile host="65bd71144e">
    <diagram id="9t48aR7KtzSBQh19jSCK" name="第 1 页">
        <mxGraphModel dx="1948" dy="896" grid="1" gridSize="10" guides="1" tooltips="1" connect="1" arrows="1" fold="1" page="1" pageScale="1" pageWidth="827" pageHeight="1169" math="0" shadow="0">
            <root>
                <mxCell id="0"/>
                <mxCell id="1" parent="0"/>
                <mxCell id="50" value="" style="rounded=0;whiteSpace=wrap;html=1;strokeWidth=1;fontSize=14;" vertex="1" parent="1">
                    <mxGeometry x="-120" y="120" width="900" height="750" as="geometry"/>
                </mxCell>
                <mxCell id="2" value="" style="whiteSpace=wrap;html=1;aspect=fixed;" vertex="1" parent="1">
                    <mxGeometry x="-70" y="160" width="670" height="670" as="geometry"/>
                </mxCell>
                <mxCell id="3" value="&lt;font style=&quot;font-size: 18px;&quot;&gt;FADD&lt;/font&gt;" style="rounded=0;whiteSpace=wrap;html=1;strokeWidth=3;" vertex="1" parent="1">
                    <mxGeometry x="610" y="200" width="120" height="600" as="geometry"/>
                </mxCell>
                <mxCell id="9" value="" style="group;strokeWidth=2;" vertex="1" connectable="0" parent="1">
                    <mxGeometry x="200" y="180" width="310" height="140" as="geometry"/>
                </mxCell>
                <mxCell id="4" value="" style="rounded=0;whiteSpace=wrap;html=1;fontSize=18;" vertex="1" parent="9">
                    <mxGeometry width="310.00000000000006" height="140" as="geometry"/>
                </mxCell>
                <mxCell id="5" value="&lt;font style=&quot;font-size: 14px;&quot;&gt;f41_op1_agent&lt;/font&gt;" style="text;html=1;strokeColor=none;fillColor=none;align=center;verticalAlign=middle;whiteSpace=wrap;rounded=0;fontSize=18;" vertex="1" parent="9">
                    <mxGeometry x="32.06896551724138" y="8.23529411764706" width="53.448275862068975" height="16.47058823529412" as="geometry"/>
                </mxCell>
                <mxCell id="6" value="sequencer" style="rounded=0;whiteSpace=wrap;html=1;fontSize=14;strokeWidth=2;" vertex="1" parent="9">
                    <mxGeometry x="192.4137931034483" y="16.47058823529412" width="96.20689655172416" height="41.1764705882353" as="geometry"/>
                </mxCell>
                <mxCell id="7" value="driver" style="rounded=0;whiteSpace=wrap;html=1;fontSize=14;strokeWidth=2;" vertex="1" parent="9">
                    <mxGeometry x="192.4137931034483" y="74.11764705882352" width="96.20689655172416" height="41.1764705882353" as="geometry"/>
                </mxCell>
                <mxCell id="8" value="monitor" style="rounded=0;whiteSpace=wrap;html=1;fontSize=14;strokeWidth=2;" vertex="1" parent="9">
                    <mxGeometry x="32.06896551724138" y="74.11764705882352" width="85.51724137931035" height="41.1764705882353" as="geometry"/>
                </mxCell>
                <mxCell id="17" value="Reference Model" style="rounded=0;whiteSpace=wrap;html=1;strokeWidth=3;fontSize=14;" vertex="1" parent="1">
                    <mxGeometry x="210" y="380" width="300" height="120" as="geometry"/>
                </mxCell>
                <mxCell id="18" value="" style="group;strokeWidth=9;" vertex="1" connectable="0" parent="1">
                    <mxGeometry x="220" y="560" width="295" height="130" as="geometry"/>
                </mxCell>
                <mxCell id="19" value="" style="rounded=0;whiteSpace=wrap;html=1;fontSize=18;" vertex="1" parent="18">
                    <mxGeometry width="295" height="130" as="geometry"/>
                </mxCell>
                <mxCell id="20" value="&lt;font style=&quot;font-size: 14px;&quot;&gt;f41_op2_agent&lt;/font&gt;" style="text;html=1;strokeColor=none;fillColor=none;align=center;verticalAlign=middle;whiteSpace=wrap;rounded=0;fontSize=18;" vertex="1" parent="18">
                    <mxGeometry x="30.51724137931034" y="7.647058823529412" width="50.86206896551724" height="15.294117647058824" as="geometry"/>
                </mxCell>
                <mxCell id="21" value="sequencer" style="rounded=0;whiteSpace=wrap;html=1;fontSize=14;strokeWidth=2;" vertex="1" parent="18">
                    <mxGeometry x="180.00344827586207" y="68.82411764705883" width="91.55172413793103" height="38.23529411764706" as="geometry"/>
                </mxCell>
                <mxCell id="22" value="driver" style="rounded=0;whiteSpace=wrap;html=1;fontSize=14;strokeWidth=2;" vertex="1" parent="18">
                    <mxGeometry x="180.00344827586207" y="10.00352941176471" width="91.55172413793103" height="38.23529411764706" as="geometry"/>
                </mxCell>
                <mxCell id="23" value="monitor" style="rounded=0;whiteSpace=wrap;html=1;fontSize=14;strokeWidth=2;" vertex="1" parent="18">
                    <mxGeometry x="30.51724137931034" y="68.82352941176471" width="81.37931034482759" height="38.23529411764706" as="geometry"/>
                </mxCell>
                <mxCell id="26" value="" style="shape=flexArrow;endArrow=classic;startArrow=classic;html=1;fontSize=14;entryX=0.75;entryY=0;entryDx=0;entryDy=0;fillColor=default;" edge="1" parent="1" target="17">
                    <mxGeometry width="100" height="100" relative="1" as="geometry">
                        <mxPoint x="435" y="290" as="sourcePoint"/>
                        <mxPoint x="413.28" y="360.1400000000001" as="targetPoint"/>
                    </mxGeometry>
                </mxCell>
                <mxCell id="29" value="Scoreboard" style="rounded=0;whiteSpace=wrap;html=1;strokeWidth=2;fontSize=14;" vertex="1" parent="1">
                    <mxGeometry x="-40" y="210" width="120" height="356" as="geometry"/>
                </mxCell>
                <mxCell id="30" value="f41_add_env" style="text;html=1;strokeColor=none;fillColor=none;align=center;verticalAlign=middle;whiteSpace=wrap;rounded=0;strokeWidth=2;fontSize=14;" vertex="1" parent="1">
                    <mxGeometry x="-50" y="160" width="60" height="30" as="geometry"/>
                </mxCell>
                <mxCell id="32" value="" style="shape=flexArrow;endArrow=classic;startArrow=classic;html=1;fontSize=14;fillColor=default;entryX=0;entryY=0.5;entryDx=0;entryDy=0;" edge="1" parent="1" target="17">
                    <mxGeometry width="100" height="100" relative="1" as="geometry">
                        <mxPoint x="80" y="440" as="sourcePoint"/>
                        <mxPoint x="190" y="380" as="targetPoint"/>
                    </mxGeometry>
                </mxCell>
                <mxCell id="36" value="" style="shape=flexArrow;endArrow=classic;startArrow=classic;html=1;fontSize=14;fillColor=default;" edge="1" parent="1">
                    <mxGeometry width="100" height="100" relative="1" as="geometry">
                        <mxPoint x="430" y="500" as="sourcePoint"/>
                        <mxPoint x="430" y="570" as="targetPoint"/>
                    </mxGeometry>
                </mxCell>
                <mxCell id="41" value="" style="rounded=0;whiteSpace=wrap;html=1;strokeWidth=1;fontSize=14;" vertex="1" parent="1">
                    <mxGeometry x="220" y="710" width="295" height="60" as="geometry"/>
                </mxCell>
                <mxCell id="42" value="monitor" style="rounded=0;whiteSpace=wrap;html=1;fontSize=14;strokeWidth=2;" vertex="1" parent="1">
                    <mxGeometry x="409.99724137931037" y="720.8835294117648" width="81.37931034482759" height="38.23529411764706" as="geometry"/>
                </mxCell>
                <mxCell id="45" value="fadd_out_agent" style="text;html=1;strokeColor=none;fillColor=none;align=center;verticalAlign=middle;whiteSpace=wrap;rounded=0;strokeWidth=1;fontSize=14;" vertex="1" parent="1">
                    <mxGeometry x="250" y="720.88" width="60" height="30" as="geometry"/>
                </mxCell>
                <mxCell id="46" value="" style="shape=flexArrow;endArrow=classic;startArrow=classic;html=1;fontSize=14;fillColor=default;entryX=0;entryY=0.5;entryDx=0;entryDy=0;exitX=0.5;exitY=1;exitDx=0;exitDy=0;" edge="1" parent="1" source="29">
                    <mxGeometry width="100" height="100" relative="1" as="geometry">
                        <mxPoint x="100" y="739.5" as="sourcePoint"/>
                        <mxPoint x="230" y="739.5" as="targetPoint"/>
                        <Array as="points">
                            <mxPoint x="20" y="740"/>
                        </Array>
                    </mxGeometry>
                </mxCell>
                <mxCell id="47" value="" style="shape=flexArrow;endArrow=classic;html=1;fontSize=14;fillColor=default;exitX=1;exitY=0.5;exitDx=0;exitDy=0;" edge="1" parent="1" source="7">
                    <mxGeometry width="50" height="50" relative="1" as="geometry">
                        <mxPoint x="540" y="290" as="sourcePoint"/>
                        <mxPoint x="610" y="275" as="targetPoint"/>
                    </mxGeometry>
                </mxCell>
                <mxCell id="48" value="" style="shape=flexArrow;endArrow=classic;html=1;fontSize=14;fillColor=default;exitX=1;exitY=0.5;exitDx=0;exitDy=0;entryX=0.017;entryY=0.65;entryDx=0;entryDy=0;entryPerimeter=0;" edge="1" parent="1" source="22" target="3">
                    <mxGeometry width="50" height="50" relative="1" as="geometry">
                        <mxPoint x="498.62068965517255" y="284.705882352941" as="sourcePoint"/>
                        <mxPoint x="619.9999999999995" y="285" as="targetPoint"/>
                    </mxGeometry>
                </mxCell>
                <mxCell id="49" value="" style="shape=flexArrow;endArrow=classic;html=1;fontSize=14;fillColor=default;entryX=1;entryY=0.5;entryDx=0;entryDy=0;" edge="1" parent="1" target="42">
                    <mxGeometry width="50" height="50" relative="1" as="geometry">
                        <mxPoint x="610" y="740" as="sourcePoint"/>
                        <mxPoint x="600" y="710" as="targetPoint"/>
                    </mxGeometry>
                </mxCell>
            </root>
        </mxGraphModel>
    </diagram>
</mxfile>